<?xml version="1.0" encoding="UTF-8"?><svg id="Layer_1" xmlns="http://www.w3.org/2000/svg" viewBox="0 0 300 300"><defs><style>.cls-1,.cls-2,.cls-3{stroke:#000;stroke-width:3px;}.cls-1,.cls-4{fill:red;}.cls-2,.cls-5{fill:none;}.cls-5,.cls-4{stroke:red;}.cls-3{fill:#008040;}.cls-6{font-size:14px;}.cls-6,.cls-7,.cls-8{fill:#322375;isolation:isolate;}.cls-6,.cls-8{font-family:Arial-BoldMT, Arial;font-weight:700;}.cls-7{font-family:ArialMT, Arial;font-size:12px;}.cls-9{fill:#fff;stroke-width:0px;}.cls-8{font-size:18px;}</style></defs><g id="Layer_2"><rect class="cls-9" width="300" height="300"/></g><g id="Layer_1-2"><g id="Gravestone_Filled"><g id="svg5264"><g id="Gravestone_Filled-2"><path id="path6695-9-2" class="cls-2" d="m109.4,223V73"/><rect id="rect4263" class="cls-3" x="95" y="98" width="30" height="100"/></g></g></g><g id="Hammer_Filled"><g id="svg5264-2"><g id="Hammer_Filled-2"><path id="path6695" class="cls-2" d="m190,73v150"/><rect id="rect4263-2" class="cls-1" x="175" y="98" width="30" height="100"/></g></g></g><g id="Title"><text class="cls-8" transform="translate(87.36 36.96) scale(1.1 1)"><tspan x="0" y="0">Candlesticks</tspan></text></g><g id="RHS_labels"><g id="RHS_Low"><text class="cls-7" transform="translate(241.3 226.12) scale(1.1 1)"><tspan x="0" y="0">Low</tspan></text><g id="Arrow-4-3"><g id="Arrow-2-2-3"><polyline class="cls-4" points="219.12 224.28 217.02 223.08 214.92 221.98 217.02 220.88 219.22 219.78"/><line class="cls-5" x1="215.42" y1="222.08" x2="233.42" y2="222.08"/></g></g></g><g id="RHS_Close"><text class="cls-7" transform="translate(242.09 205.28) scale(1.1 1)"><tspan x="0" y="0">Close</tspan></text><g id="Arrow-4-4"><g id="Arrow-2-2-4"><polyline class="cls-4" points="218.32 203.48 216.22 202.28 214.12 201.08 216.32 200.08 218.42 198.98"/><line class="cls-5" x1="214.62" y1="201.18" x2="232.62" y2="201.18"/></g></g></g><g id="RHS_Open"><text class="cls-7" transform="translate(241.65 102.07) scale(1.1 1)"><tspan x="0" y="0">Open</tspan></text><g id="Arrow-4-2"><g id="Arrow-2-2-2"><polyline class="cls-4" points="218.82 100.18 216.62 99.08 214.52 97.88 216.72 96.78 218.92 95.68"/><line class="cls-5" x1="215.02" y1="97.98" x2="233.02" y2="97.98"/></g></g></g><g id="RHS_High"><text class="cls-7" transform="translate(241.65 80.21) scale(1.1 1)"><tspan x="0" y="0">High</tspan></text><g id="Arrow-4"><g id="Arrow-2-2"><polyline class="cls-4" points="218.82 78.38 216.62 77.18 214.52 76.08 216.72 74.98 218.92 73.88"/><line class="cls-5" x1="215.02" y1="76.08" x2="233.02" y2="76.08"/></g></g></g></g><g id="LHS_Labels"><g id="LHS_Low"><text class="cls-7" transform="translate(33.13 224.31) scale(1.1 1)"><tspan x="0" y="0">Low</tspan></text><g id="Arrow-2-7"><g id="Arrow-2-8"><polyline class="cls-4" points="81.9 218 84.1 219.1 86.2 220.3 84 221.4 81.8 222.5"/><line class="cls-5" x1="85.7" y1="220.2" x2="67.7" y2="220.2"/></g></g></g><g id="LHS_Open"><text class="cls-7" transform="translate(27.08 200.81) scale(1.1 1)"><tspan x="0" y="0">Open</tspan></text><g id="Arrow-2-5"><g id="Arrow-2-6"><polyline class="cls-4" points="82.1 194.5 84.2 195.6 86.3 196.8 84.1 197.9 82 199"/><line class="cls-5" x1="85.8" y1="196.7" x2="67.8" y2="196.7"/></g></g></g><g id="LHS_Close"><text class="cls-7" transform="translate(23.7 101.74) scale(1.1 1)"><tspan x="0" y="0">Close</tspan></text><g id="Arrow-2"><g id="Arrow-2-2-2-2"><polyline class="cls-4" points="81.6 95.4 83.8 96.6 85.9 97.7 83.7 98.8 81.5 99.9"/><line class="cls-5" x1="85.4" y1="97.6" x2="67.4" y2="97.6"/></g></g></g><g id="LHS_High"><text class="cls-7" transform="translate(29.28 79.32) scale(1.1 1)"><tspan x="0" y="0">High</tspan></text><g id="Arrow-2-3"><g id="Arrow-2-4"><polyline class="cls-4" points="80.9 73 83.1 74.1 85.2 75.3 83 76.4 80.8 77.5"/><line class="cls-5" x1="84.7" y1="75.2" x2="66.7" y2="75.2"/></g></g></g></g><g id="SubTitles"><text class="cls-6" transform="translate(87.28 273.73) scale(1.1 1)"><tspan x="0" y="0">Bullish</tspan></text><text class="cls-6" transform="translate(159.57 273.73) scale(1.1 1)"><tspan x="0" y="0">Bearish</tspan></text></g></g></svg>